<svg xmlns="http://www.w3.org/2000/svg" viewBox="0 0 24 24">
  <rect width="24" height="24" rx="4" fill="#006045"></rect>
  <path d="M21 16V8a2 2 0 0 0-1-1.73l-7-4a2 2 0 0 0-2 0l-7 4A2 2 0 0 0 3 8v8a2 2 0 0 0 1 1.73l7 4a2 2 0 0 0 2 0l7-4A2 2 0 0 0 21 16z"
        fill="none" stroke="white" stroke-width="2" stroke-linecap="round" stroke-linejoin="round" />
  <polyline points="3.27 6.96 12 12.01 20.73 6.96" fill="none" stroke="white" stroke-width="2" stroke-linecap="round" stroke-linejoin="round" />
  <line x1="12" y1="22.08" x2="12" y2="12" fill="none" stroke="white" stroke-width="2" stroke-linecap="round" stroke-linejoin="round" />
</svg>
